<svg xmlns="http://www.w3.org/2000/svg" version="1.1" xmlns:xlink="http://www.w3.org/1999/xlink" xmlns:svgjs="http://svgjs.com/svgjs" width="1440" height="420" preserveAspectRatio="none" viewBox="0 0 1440 420"><g mask="url(&quot;#SvgjsMask1525&quot;)" fill="none"><rect width="1440" height="420" x="0" y="0" fill="#0e2a47"></rect><path d="M57 420L477 0L844.5 0L424.5 420z" fill="url(#SvgjsLinearGradient1526)"></path><path d="M332.8 420L752.8 0L922.3 0L502.3 420z" fill="url(#SvgjsLinearGradient1526)"></path><path d="M666.6 420L1086.6 0L1196.1 0L776.1 420z" fill="url(#SvgjsLinearGradient1526)"></path><path d="M1404 420L984 0L700.5 0L1120.5 420z" fill="url(#SvgjsLinearGradient1527)"></path><path d="M1086.2 420L666.2 0L538.7 0L958.7 420z" fill="url(#SvgjsLinearGradient1527)"></path><path d="M788.4 420L368.4 0L-50.10000000000002 0L369.9 420z" fill="url(#SvgjsLinearGradient1527)"></path><path d="M1195.428070150581 420L1440 175.42807015058108L1440 420z" fill="url(#SvgjsLinearGradient1526)"></path><path d="M0 420L244.57192984941892 420L 0 175.42807015058108z" fill="url(#SvgjsLinearGradient1527)"></path></g><defs><mask id="SvgjsMask1525"><rect width="1440" height="420" fill="#ffffff"></rect></mask><linearGradient x1="0%" y1="100%" x2="100%" y2="0%" id="SvgjsLinearGradient1526"><stop stop-color="rgba(15, 70, 185, 0.2)" offset="0"></stop><stop stop-opacity="0" stop-color="rgba(15, 70, 185, 0.2)" offset="0.66"></stop></linearGradient><linearGradient x1="100%" y1="100%" x2="0%" y2="0%" id="SvgjsLinearGradient1527"><stop stop-color="rgba(15, 70, 185, 0.2)" offset="0"></stop><stop stop-opacity="0" stop-color="rgba(15, 70, 185, 0.2)" offset="0.66"></stop></linearGradient></defs></svg>