<svg xmlns="http://www.w3.org/2000/svg" version="1.1" xmlns:xlink="http://www.w3.org/1999/xlink" xmlns:svgjs="http://svgjs.com/svgjs" width="1440" height="420" preserveAspectRatio="none" viewBox="0 0 1440 420"><g mask="url(&quot;#SvgjsMask1104&quot;)" fill="none"><rect width="1440" height="420" x="0" y="0" fill="url(#SvgjsLinearGradient1105)"></rect><path d="M1440 0L1041.54 0L1440 52.82z" fill="rgba(255, 255, 255, .1)"></path><path d="M1041.54 0L1440 52.82L1440 176.05L500.06999999999994 0z" fill="rgba(255, 255, 255, .075)"></path><path d="M500.06999999999994 0L1440 176.05L1440 261.39L206.26999999999992 0z" fill="rgba(255, 255, 255, .05)"></path><path d="M206.26999999999998 0L1440 261.39L1440 300.53L177.61999999999998 0z" fill="rgba(255, 255, 255, .025)"></path><path d="M0 420L331.19 420L0 412.11z" fill="rgba(0, 0, 0, .1)"></path><path d="M0 412.11L331.19 420L522.77 420L0 260.42z" fill="rgba(0, 0, 0, .075)"></path><path d="M0 260.42L522.77 420L723.52 420L0 180.45000000000002z" fill="rgba(0, 0, 0, .05)"></path><path d="M0 180.45000000000002L723.52 420L1025.5 420L0 88.58000000000001z" fill="rgba(0, 0, 0, .025)"></path></g><defs><mask id="SvgjsMask1104"><rect width="1440" height="420" fill="#ffffff"></rect></mask><linearGradient x1="50%" y1="0%" x2="50%" y2="100%" gradientUnits="userSpaceOnUse" id="SvgjsLinearGradient1105"><stop stop-color="#0e2a47" offset="0"></stop><stop stop-color="rgba(32, 34, 53, 1)" offset="1"></stop></linearGradient></defs></svg>